<?xml version="1.0" standalone="no"?><!DOCTYPE svg PUBLIC "-//W3C//DTD SVG 1.1//EN" "http://www.w3.org/Graphics/SVG/1.1/DTD/svg11.dtd"><svg t="1686495100770" class="icon" viewBox="0 0 1210 1024" version="1.1" xmlns="http://www.w3.org/2000/svg" p-id="3833" xmlns:xlink="http://www.w3.org/1999/xlink" width="236.328125" height="200"><path d="M695.575273 35.84c4.002909 1.908364 18.152727 7.866182 42.263272 17.780364 24.203636 9.960727 41.285818 16.290909 51.386182 19.176727 10.053818 2.792727 22.155636 9.914182 36.258909 21.271273 5.026909 8.517818 9.309091 14.661818 12.8 18.478545 3.537455 3.770182 4.049455 8.052364 1.536 12.753455-2.513455 4.747636-4.794182 13.265455-6.795636 25.6a255.069091 255.069091 0 0 1-15.825455 12.055272c-3.584 2.327273-11.357091 3.258182-23.458909 2.792728-12.101818-0.465455-24.901818 4.514909-38.493091 14.894545-13.591273 10.426182-25.925818 16.616727-37.003636 18.478546-11.077818 1.861818-21.922909 5.213091-32.488727 9.960727a143.918545 143.918545 0 0 0-30.952727 19.130182 1765.469091 1765.469091 0 0 1-49.850182 37.655272l-10.565818 140.567273 19.595636-7.121454a2676.084364 2676.084364 0 0 0-2.234182-22.714182 18.804364 18.804364 0 0 1 3.025455-12.8c2.513455-3.770182 6.795636-10.426182 12.8-19.874909a35.234909 35.234909 0 0 0 15.127272-3.537455 29.044364 29.044364 0 0 0 9.774546-6.376727c1.536-1.908364 4.840727-2.839273 9.867636-2.839273l1.489455-11.357091c7.074909 4.701091 13.125818 8.983273 18.152727 12.753455 5.026909 3.816727 16.849455 6.656 35.467636 8.517818 18.618182 1.861818 46.545455 6.144 83.828364 12.8l18.152727 17.035636c-5.026909 9.448727-4.049455 17.501091 3.025455 24.110546l-27.182546 9.960727 9.029819 8.517818-15.080728 11.357091 6.050909 7.074909c-10.100364 0-23.412364 4.282182-40.029091 12.8-16.616727 8.517818-31.976727 17.221818-46.08 26.251637-14.103273 8.983273-25.693091 14.894545-34.769454 17.733818l-4.514909 11.357091c-10.053818 1.861818-18.152727 3.304727-24.203637 4.282181l-7.493818 12.753455-9.076363-2.792727 4.514909 5.632-6.050909 2.839272-1.489455-4.235636-21.131636 9.914182-3.025455 8.517818-9.076363 7.121455c-2.001455 45.428364-4.514909 76.893091-7.540364 94.394181a272.523636 272.523636 0 0 0-4.561455 45.428364v61.719273c15.127273-1.861818 29.742545-4.002909 43.845819-6.376727 14.056727-2.327273 48.081455-5.678545 101.934545-9.914182 53.853091-4.282182 85.829818-8.517818 95.883636-12.8 10.100364-4.235636 18.664727-6.609455 25.693091-7.074909 7.074909-0.465455 16.896-4.282182 29.463273-11.357091 12.567273-7.121455 31.976727-13.498182 58.181818-19.176728 26.158545-5.678545 48.081455-4.747636 65.675637 2.839273 17.640727 7.586909 32.256 17.966545 43.799272 31.232 11.636364 13.265455 26.205091 23.412364 43.799273 30.533818 17.640727 7.074909 39.563636 17.687273 65.722182 31.930182 13.079273 15.127273 22.388364 25.088 27.927273 29.789091 5.585455 4.747636 10.845091 10.426182 15.872 17.035636 5.026909 6.656 6.795636 15.173818 5.306181 25.6a102.260364 102.260364 0 0 0-1.536 22.667637c0.512 4.747636 0.791273 11.869091 0.791273 21.317818-17.128727 8.517818-33.745455 16.570182-49.850182 24.110545l-15.127272 15.639273-42.309819 22.714182v-11.357091a1285.026909 1285.026909 0 0 1-61.905454-35.514182c-20.154182-12.288-33.745455-18.897455-40.773818-19.874909l-18.152728-18.432c-14.103273 0-23.877818-0.698182-29.416727-2.141091a221.184 221.184 0 0 1-16.616727-4.980363 35.188364 35.188364 0 0 1-12.846546-7.074909l-13.591272 4.980363c-4.049455 1.396364-13.870545 4.235636-29.463273 8.517818-15.592727 4.235636-28.206545 6.144-37.748364 5.678546-9.588364-0.465455-28.206545 6.376727-55.901091 20.573091a426.356364 426.356364 0 0 0-71.773091 45.428363c31.232-29.323636 60.416-61.533091 87.645091-96.535272l-10.612363 4.235636v-8.517818l19.642182-4.235637c-19.083636 0-34.210909-0.465455-45.288728-1.396363-11.077818-0.930909-21.643636 0-31.744 2.792727a91.415273 91.415273 0 0 1-29.463272 3.584c-9.541818-0.465455-24.157091 0.930909-43.752728 4.235636a250.181818 250.181818 0 0 0-53.666909 14.894546c-16.104727 6.656-26.670545 8.517818-31.697454 5.678545a15.825455 15.825455 0 0 0-15.825455 0 316.648727 316.648727 0 0 1-26.484364 11.357091l-7.540363-4.235636a340.107636 340.107636 0 0 1-38.539637 11.357091c-15.592727 3.770182-27.694545 5.445818-36.212363 4.980363-8.564364-0.465455-14.615273 1.163636-18.152727 4.933819-3.537455 3.816727-9.774545 5.445818-18.85091 4.980363-9.076364-0.465455-59.438545 9.960727-151.086545 31.232-91.601455 21.317818-141.730909 35.002182-150.295273 41.192728-8.517818 6.144-15.36 9.681455-20.386909 10.612363l-19.642182-25.553454-15.080727-11.357091-21.131636-22.714182-22.667637-15.592727c7.028364-11.357091 11.589818-23.645091 13.591273-36.910546l19.642182-9.960727c6.050909 0.930909 10.333091 1.908364 12.846545 2.839273 2.513455 0.930909 10.565818 2.373818 24.157091 4.282181 13.591273 1.861818 79.313455-13.265455 197.12-45.428363 117.806545-32.162909 178.269091-48.733091 181.248-49.710546l-12.101818-7.074909-13.591273 8.517818 9.076364-17.035636-6.050909-8.517818c5.026909-4.747636 9.309091-8.052364 12.846545-9.960727 3.537455-1.861818 8.052364-6.842182 13.591273-14.894546 5.585455-8.052364 9.588364-20.340364 12.101818-36.910545l12.846546-84.433455a55.202909 55.202909 0 0 1-11.357091 8.517818 122.414545 122.414545 0 0 1-18.850909 7.074909c-9.076364 2.839273-19.921455 8.983273-32.488728 18.478546-12.567273 9.448727-21.410909 15.127273-26.437818 17.035636l7.540364 1.396364-18.152727 14.196364a57.157818 57.157818 0 0 1-15.080728 22.714181l-40.773818 24.110546a159.790545 159.790545 0 0 0-36.258909-11.357091 196.049455 196.049455 0 0 0-20.386909-21.271273c-5.538909-4.747636-8.564364-12.8-9.076364-24.110545a114.455273 114.455273 0 0 0-2.234181-22.016 329.634909 329.634909 0 0 0-4.561455-13.498182l-16.616727-14.196364a112.500364 112.500364 0 0 1-3.723637-12.101818c-0.558545-2.327273 1.210182-8.471273 5.259637-18.432 4.002909-9.914182 7.819636-16.570182 11.310545-19.874909 3.537455-3.258182 5.026909-6.144 4.561455-8.517818-0.512-2.327273-0.279273-4.002909 0.744727-4.933818l16.616727-12.8 9.029818-12.753455 32.488728 2.094546c6.516364 0.465455 11.357091 0.232727 14.336-0.698182a19.223273 19.223273 0 0 0 7.586909-4.235637c123.810909-137.262545 185.250909-211.781818 184.273454-223.604363a146.478545 146.478545 0 0 1 1.489455-36.212364l-66.466909 18.478546c-17.082182 4.701091-38.260364 7.307636-63.441455 7.77309-25.134545 0.465455-43.752727-1.861818-55.854545-7.074909l-40.773818-17.733818a239.802182 239.802182 0 0 0-21.178182-22.016 19.549091 19.549091 0 0 1-6.795637-14.196363c-0.465455-6.144-3.537455-13.265455-9.076363-21.317819a41.425455 41.425455 0 0 1-8.285091-23.412363v-35.467637l18.152727-8.517818c11.031273 7.540364 19.595636 13.498182 25.646546 17.733818 6.050909 4.282182 15.592727 7.354182 28.718545 9.216 13.032727 1.861818 32.954182 0 59.671273-5.678545 26.670545-5.678545 72.238545-19.130182 136.657454-40.448 64.465455-21.271273 101.469091-37.143273 111.057455-47.569455 9.541818-10.379636 18.338909-16.058182 26.391273-17.035636 8.098909-0.930909 20.666182-5.213091 37.794909-12.753455zM446.603636 414.114909c-83.083636 118.365091-124.648727 178.688-124.648727 180.875636v8.192l116.363636-74.007272 9.681455-113.431273-1.396364-1.629091z" fill="#FFE08F" p-id="3834"></path></svg>